#!OML:ASF E:\Steps\Project 1\Capture day 1\Session 2\Subject.ASF
:FULLY-SPECIFIED
:DEGREES
63
root 9.08234 16.329 9.36416 -153.356 -2.82428 -179.358
lowerback -29.7312 -1.78203 -5.40028
upperback -3.16384 -1.56851 -0.0863852
thorax 12.181 -1.39259 2.15464
lowerneck 1.80476 -4.44639 -0.651887
upperneck -11.9435 -6.08644 5.24448
head -4.03919 -3.45984 2.1255
rclavicle 7.45443e-015 -1.98785e-014
rhumerus -33.428 -18.6896 -80.5154
rradius 27.0387
rwrist 0.308631
rhand -7.49104 -51.2356
rfingers 7.12502
rthumb 18.3985 -80.3855
lclavicle 7.45443e-015 -1.98785e-014
lhumerus -27.7637 6.3083 83.1075
lradius 17.3675
lwrist -9.90522
lhand -21.0944 -11.8344
lfingers 7.12502
lthumb 5.28323 18.0797
rfemur -25.7384 9.83538 17.0225
rtibia 9.27536
rfoot -19.4869 -7.33173
rtoes -40.2906
lfemur -24.4251 -9.42691 -17.6618
ltibia 7.55994
lfoot -8.34026 4.22107
ltoes -42.0462
64
root 9.08367 16.3289 9.36629 -153.351 -2.85657 -179.292
lowerback -29.8009 -1.78389 -5.33529
upperback -3.10267 -1.57892 -0.0647653
thorax 12.2822 -1.39336 2.13674
lowerneck 2.10566 -4.6134 -0.359819
upperneck -12.8745 -6.33283 5.46002
head -4.42996 -3.65105 2.20947
rclavicle -7.8023e-015 3.97569e-015
rhumerus -33.318 -18.7572 -80.5286
rradius 26.9713
rwrist 0.358879
rhand -7.6621 -51.0485
rfingers 7.12502
rthumb 18.2339 -80.2138
lclavicle -7.8023e-015 3.97569e-015
lhumerus -27.7581 6.02048 83.1609
lradius 17.4266
lwrist -9.66575
lhand -20.8359 -12.1891
lfingers 7.12502
lthumb 5.53281 17.7187
rfemur -25.7409 9.82203 17.1131
rtibia 9.26223
rfoot -19.4983 -7.30662
rtoes -40.1838
lfemur -24.4621 -9.31233 -17.5991
ltibia 7.55975
lfoot -8.30422 4.15193
ltoes -42.391
65
root 9.08561 16.3297 9.36949 -153.327 -2.88971 -179.33
lowerback -29.6944 -1.82316 -5.43052
upperback -3.17406 -1.6201 -0.0358442
thorax 12.1595 -1.41738 2.20695
lowerneck 1.84054 -4.53022 -0.535336
upperneck -12.3009 -6.21836 5.25355
head -4.17362 -3.54824 2.12941
rclavicle -2.83268e-015 1.59028e-015
rhumerus -33.4756 -18.6941 -80.4297
rradius 26.9918
rwrist 0.345193
rhand -7.49323 -51.0106
rfingers 7.12502
rthumb 18.3964 -80.1607
lclavicle -2.83268e-015 1.59028e-015
lhumerus -27.9509 5.76046 83.2251
lradius 17.5077
lwrist -9.50575
lhand -20.8138 -11.9635
lfingers 7.12502
lthumb 5.55409 17.9437
rfemur -25.7786 9.80563 17.0698
rtibia 9.27807
rfoot -19.4746 -7.33942
rtoes -40.235
lfemur -24.5308 -9.1824 -17.6721
ltibia 7.56396
lfoot -8.19674 4.09294
ltoes -43.0526
66
root 9.08573 16.329 9.37104 -153.322 -2.91628 -179.382
lowerback -29.4984 -1.85047 -5.49072
upperback -3.62069 -1.66132 -0.111384
thorax 12.3536 -1.45229 2.30759
lowerneck 1.84303 -4.36507 -0.711255
upperneck -12.1328 -6.0066 5.02247
head -4.12212 -3.41339 2.06774
rclavicle -6.95746e-015 -8.74653e-015
rhumerus -33.599 -18.7283 -80.3069
rradius 26.9245
rwrist 0.456037
rhand -7.3341 -50.8057
rfingers 7.12502
rthumb 18.5495 -79.9412
lclavicle -6.95746e-015 -8.74653e-015
lhumerus -28.1057 5.80757 83.1804
lradius 17.4724
lwrist -9.5888
lhand -20.9766 -11.2838
lfingers 7.12502
lthumb 5.39697 18.6275
rfemur -25.7787 9.76916 17.0211
rtibia 9.28845
rfoot -19.4086 -7.40364
rtoes -40.5599
lfemur -24.5591 -9.20333 -17.733
ltibia 7.59365
lfoot -8.19668 4.12713
ltoes -43.2386
67
root 9.08442 16.3278 9.37191 -153.313 -2.92567 -179.385
lowerback -29.6986 -1.86946 -5.47338
upperback -3.16095 -1.66287 -0.0449455
thorax 12.1796 -1.43858 2.20387
lowerneck 1.83096 -4.49158 -0.645648
upperneck -11.9557 -6.14839 5.22509
head -4.04731 -3.48999 2.1215
rclavicle -9.24349e-015 -3.18055e-015
rhumerus -33.4975 -18.8806 -80.3016
rradius 26.856
rwrist 0.603388
rhand -7.25175 -51.4785
rfingers 7.12502
rthumb 18.6287 -80.6065
lclavicle -9.24349e-015 -3.18055e-015
lhumerus -28.0502 5.91478 83.1047
lradius 17.4428
lwrist -9.63165
lhand -20.9615 -10.8906
lfingers 7.12502
lthumb 5.41148 19.0203
rfemur -25.7969 9.74432 17.0187
rtibia 9.30626
rfoot -19.4448 -7.4243
rtoes -40.563
lfemur -24.5808 -9.2949 -17.7141
ltibia 7.64847
lfoot -8.29277 4.13688
ltoes -42.959
68
root 9.08398 16.3287 9.37369 -153.303 -2.93485 -179.373
lowerback -29.7711 -1.8697 -5.43806
upperback -3.10972 -1.66113 -0.0508911
thorax 12.2688 -1.43567 2.17669
lowerneck 2.1184 -4.6516 -0.362527
upperneck -12.8521 -6.38219 5.46615
head -4.42227 -3.67441 2.21337
rclavicle -8.44835e-015 7.15625e-015
rhumerus -33.3281 -18.9829 -80.313
rradius 26.7527
rwrist 0.698401
rhand -7.07835 -52.4062
rfingers 7.12502
rthumb 18.7955 -81.5182
lclavicle -8.44835e-015 7.15625e-015
lhumerus -27.9709 6.01877 83.0486
lradius 17.4061
lwrist -9.6152
lhand -20.747 -10.8375
lfingers 7.12502
lthumb 5.61862 19.0681
rfemur -25.8338 9.76561 17.0208
rtibia 9.32684
rfoot -19.507 -7.4628
rtoes -40.5815
lfemur -24.6148 -9.30115 -17.6964
ltibia 7.68848
lfoot -8.29478 4.08022
ltoes -42.7616
69
root 9.08458 16.329 9.37513 -153.302 -2.91672 -179.364
lowerback -29.6743 -1.86324 -5.46001
upperback -3.17359 -1.66422 -0.0260885
thorax 12.1553 -1.4386 2.21726
lowerneck 1.7714 -4.42246 -0.709833
upperneck -11.8119 -6.06195 5.07208
head -3.98962 -3.42948 2.06995
rclavicle 8.10048e-015 -5.56597e-015
rhumerus -33.4602 -18.9197 -80.2562
rradius 26.7786
rwrist 0.671373
rhand -7.11158 -52.0626
rfingers 7.12502
rthumb 18.7635 -81.1776
lclavicle 8.10048e-015 -5.56597e-015
lhumerus -28.0616 6.26229 82.9227
lradius 17.224
lwrist -9.81063
lhand -21.0486 -10.7727
lfingers 7.12502
lthumb 5.32743 19.1403
rfemur -25.8623 9.73631 17.0337
rtibia 9.35709
rfoot -19.4875 -7.43246
rtoes -40.8186
lfemur -24.6216 -9.31517 -17.6736
ltibia 7.65183
lfoot -8.24663 4.11907
ltoes -42.7192
70
root 9.08503 16.3287 9.37586 -153.299 -2.88825 -179.377
lowerback -29.6615 -1.86214 -5.48337
upperback -3.18037 -1.65745 -0.023808
thorax 12.1418 -1.43668 2.23525
lowerneck 1.50125 -4.09904 -0.97094
upperneck -11.5035 -5.66812 4.53174
head -3.84763 -3.18296 1.89926
rclavicle 1.49089e-015 -1.59028e-015
rhumerus -33.5294 -18.9034 -80.2579
rradius 26.8632
rwrist 0.649441
rhand -7.03173 -52.0026
rfingers 7.12502
rthumb 18.8403 -81.1102
lclavicle 1.49089e-015 -1.59028e-015
lhumerus -28.0545 6.78941 82.643
lradius 16.9189
lwrist -10.3281
lhand -21.3311 -10.871
lfingers 7.12502
lthumb 5.05461 19.0487
rfemur -25.8867 9.70077 17.0156
rtibia 9.38481
rfoot -19.4497 -7.38565
rtoes -40.8219
lfemur -24.6222 -9.35483 -17.6718
ltibia 7.64687
lfoot -8.29495 4.14669
ltoes -42.4996
71
root 9.0851 16.3296 9.37537 -153.308 -2.91215 -179.382
lowerback -29.8297 -1.87464 -5.44429
upperback -3.04898 -1.65136 -0.0470541
thorax 12.3631 -1.43046 2.18591
lowerneck 1.68054 -4.37028 -0.765601
upperneck -11.7705 -6.0055 4.94197
head -3.96104 -3.39114 2.02886
rclavicle 1.61016e-014 0
rhumerus -33.2918 -19.0524 -80.3238
rradius 26.7934
rwrist 0.739715
rhand -6.93687 -52.6425
rfingers 7.12502
rthumb 18.9315 -81.7412
lclavicle 1.61016e-014 0
lhumerus -27.8276 7.46754 82.3123
lradius 16.5964
lwrist -10.9466
lhand -21.1272 -11.3929
lfingers 7.12502
lthumb 5.25155 18.522
rfemur -25.8601 9.70083 17.0162
rtibia 9.36676
rfoot -19.495 -7.38228
rtoes -40.8331
lfemur -24.6078 -9.35475 -17.6716
ltibia 7.69813
lfoot -8.37157 4.09984
ltoes -42.1705
72
root 9.08445 16.3294 9.37453 -153.322 -2.94747 -179.371
lowerback -29.9184 -1.88043 -5.40153
upperback -2.99083 -1.65701 -0.0572388
thorax 12.4678 -1.43051 2.14684
lowerneck 1.90811 -4.39891 -0.66305
upperneck -12.3925 -6.07121 4.95431
head -4.23002 -3.45549 2.05203
rclavicle -4.96962e-017 7.95139e-015
rhumerus -33.311 -18.9946 -80.3644
rradius 26.9047
rwrist 0.74792
rhand -6.94604 -53.2619
rfingers 7.12502
rthumb 18.9227 -82.3615
lclavicle -4.96962e-017 7.95139e-015
lhumerus -27.7574 7.82313 82.1015
lradius 16.3864
lwrist -11.2756
lhand -21.0405 -11.9422
lfingers 7.12502
lthumb 5.33527 17.9707
rfemur -25.8234 9.64338 17.0607
rtibia 9.34627
rfoot -19.5407 -7.34484
rtoes -41.0288
lfemur -24.5868 -9.35756 -17.6597
ltibia 7.7076
lfoot -8.38953 4.06107
ltoes -42.0278
73
root 9.08331 16.3282 9.37499 -153.322 -2.96729 -179.355
lowerback -29.9145 -1.87001 -5.3693
upperback -3.01039 -1.6577 -0.0622724
thorax 12.4433 -1.42986 2.12398
lowerneck 1.88999 -4.46044 -0.656542
upperneck -11.8223 -6.10574 5.05218
head -4.01726 -3.45135 2.06059
rclavicle -3.32964e-015 6.36111e-015
rhumerus -33.4522 -18.9859 -80.3285
rradius 26.9872
rwrist 0.829291
rhand -6.85122 -53.4403
rfingers 7.12502
rthumb 19.0139 -82.5309
lclavicle -3.32964e-015 6.36111e-015
lhumerus -27.8311 8.02156 81.941
lradius 16.2525
lwrist -11.5597
lhand -21.0587 -12.2211
lfingers 7.12502
lthumb 5.31768 17.6922
rfemur -25.8253 9.58914 17.0997
rtibia 9.35468
rfoot -19.4949 -7.36858
rtoes -41.0931
lfemur -24.583 -9.39141 -17.638
ltibia 7.67086
lfoot -8.37259 4.02536
ltoes -41.98
74
root 9.08311 16.3282 9.37669 -153.304 -2.98058 -179.354
lowerback -29.9219 -1.85921 -5.36435
upperback -3.00959 -1.64435 -0.0650888
thorax 12.4463 -1.42354 2.12318
lowerneck 1.916 -4.48147 -0.648474
upperneck -11.673 -6.121 5.05982
head -3.96844 -3.45219 2.05714
rclavicle -8.29926e-015 -3.02153e-014
rhumerus -33.5081 -19.1813 -80.2294
rradius 26.9166
rwrist 1.03342
rhand -6.77813 -53.16
rfingers 7.12502
rthumb 19.0842 -82.2437
lclavicle -8.29926e-015 -3.02153e-014
lhumerus -27.8347 8.26092 81.8045
lradius 16.1033
lwrist -11.9539
lhand -21.1128 -12.0519
lfingers 7.12502
lthumb 5.26544 17.8627
rfemur -25.8622 9.60236 17.0909
rtibia 9.37952
rfoot -19.4599 -7.3747
rtoes -40.8301
lfemur -24.6164 -9.39706 -17.6303
ltibia 7.66087
lfoot -8.36789 4.03782
ltoes -42.1624
